<svg xmlns="http://www.w3.org/2000/svg" version="1.1" xmlns:xlink="http://www.w3.org/1999/xlink" xmlns:svgjs="http://svgjs.com/svgjs" width="260" height="260"><svg width="260" height="260" viewBox="0 0 260 260" fill="none" xmlns="http://www.w3.org/2000/svg">
<path fill-rule="evenodd" clip-rule="evenodd" d="M0 130C0 58.203 58.203 0 130 0C201.797 0 260 58.203 260 130C260 201.797 201.797 260 130 260C58.203 260 0 201.797 0 130ZM174.209 57.7474H204.716V88.2337H174.209V57.7474ZM173.238 88.2337C183.222 88.2337 190.942 91.2361 196.396 97.241C201.942 103.246 204.716 111.376 204.716 121.63L204.716 189.116H174.07L174.07 125.51C174.07 122.184 173.054 119.598 171.02 117.75C169.078 115.81 166.444 114.84 163.116 114.84C159.695 114.84 157.014 115.81 155.073 117.75C153.132 119.598 152.161 122.184 152.161 125.51L152.161 189.116H121.516V125.51C121.516 122.184 120.499 119.598 118.465 117.75C118.098 117.383 117.706 117.051 117.289 116.753L99.7018 99.1778C101.911 95.9176 104.884 93.2858 108.62 91.2823C112.502 89.2499 117.032 88.2337 122.209 88.2337C127.848 88.2337 132.84 89.4809 137.185 91.9752C141.53 94.3772 144.997 97.7953 147.585 102.23C150.451 98.1649 154.102 94.8391 158.54 92.2524C162.977 89.5733 167.877 88.2337 173.238 88.2337ZM38.3158 88.7882L69.6946 88.788L100.855 119.928C100.023 121.472 99.6065 123.332 99.6065 125.51V189.116H68.8225V119.275H38.3158V88.7882Z" fill="black"></path>
</svg><style>@media (prefers-color-scheme: light) { :root { filter: none; } }
@media (prefers-color-scheme: dark) { :root { filter: invert(100%); } }
</style></svg>