<?xml version="1.0" standalone="no"?>
<!DOCTYPE svg PUBLIC "-//W3C//DTD SVG 20010904//EN"
 "http://www.w3.org/TR/2001/REC-SVG-20010904/DTD/svg10.dtd">
<svg version="1.0" xmlns="http://www.w3.org/2000/svg"
 width="700.000000pt" height="700.000000pt" viewBox="0 0 700.000000 700.000000"
 preserveAspectRatio="xMidYMid meet">
<metadata>
Created by potrace 1.14, written by Peter Selinger 2001-2017
</metadata>
<g transform="translate(0.000000,700.000000) scale(0.100000,-0.100000)"
fill="#000000" stroke="none">
<path d="M3488 6995 c-2 -2 -58 -5 -125 -6 -68 -1 -151 -6 -185 -10 -35 -4
-88 -10 -119 -13 -31 -4 -65 -8 -75 -10 -11 -2 -41 -7 -68 -10 -27 -4 -52 -9
-55 -11 -3 -1 -24 -6 -46 -9 -22 -4 -85 -17 -140 -31 -939 -226 -1747 -835
-2222 -1675 -155 -275 -284 -597 -349 -870 -50 -214 -73 -351 -91 -550 -15
-168 -9 -571 12 -714 3 -17 7 -49 9 -71 10 -83 18 -131 26 -165 5 -19 12 -48
14 -65 28 -156 113 -434 189 -615 175 -423 424 -796 747 -1121 194 -195 322
-302 529 -443 422 -288 978 -503 1451 -562 19 -2 46 -6 60 -9 14 -2 54 -7 90
-10 36 -3 88 -8 115 -10 62 -6 431 -7 465 -1 14 2 61 7 105 11 91 7 235 26
309 41 11 2 32 6 46 9 282 54 602 165 884 307 77 38 152 78 167 89 15 10 30
19 34 19 18 0 331 217 421 292 171 143 324 290 424 407 30 36 62 72 71 82 9 9
36 43 60 75 24 33 47 61 50 64 13 11 139 199 191 285 171 282 315 624 393 932
30 118 73 343 81 422 3 31 7 67 9 81 23 137 23 616 -1 755 -1 11 -5 43 -9 70
-13 125 -57 335 -101 495 -142 507 -415 1001 -769 1390 -431 474 -958 810
-1571 1001 -54 17 -106 32 -114 34 -8 2 -46 11 -85 20 -67 16 -79 18 -135 30
-63 13 -201 35 -255 41 -33 3 -73 8 -90 10 -16 3 -93 7 -170 10 -77 3 -148 7
-157 8 -9 2 -18 2 -20 1z m1975 -1554 l37 -1 0 -409 0 -409 -327 0 c-181 -1
-341 -2 -358 -3 -27 -1 -26 -2 10 -9 22 -5 54 -11 70 -14 110 -20 242 -87 331
-169 120 -110 193 -234 241 -413 l28 -99 3 -1002 3 -1003 -411 0 c-225 0 -410
3 -411 8 -1 4 -2 405 -3 892 l-2 885 -23 53 c-27 60 -74 106 -140 135 -72 32
-199 29 -271 -7 -30 -15 -70 -44 -88 -64 -64 -72 -62 -45 -62 -1019 l0 -883
-410 0 c-225 0 -411 3 -411 8 -1 4 -2 399 -3 877 -1 479 -6 886 -10 905 -5 19
-14 47 -22 61 -7 14 -135 147 -283 294 -149 148 -271 273 -271 278 0 4 35 43
78 85 99 99 227 167 357 190 78 14 316 7 385 -11 116 -30 245 -103 331 -187
42 -41 90 -95 105 -119 l28 -43 18 23 c46 60 159 165 218 204 138 91 254 133
393 142 l87 6 0 408 0 408 23 3 c17 2 552 1 760 -1z m-3174 -1250 l417 -416
-14 -45 c-12 -37 -15 -207 -17 -925 -1 -484 -3 -883 -4 -887 0 -5 -185 -8
-411 -8 l-410 0 0 940 0 939 -392 0 c-216 0 -401 0 -410 1 -17 0 -18 26 -18
403 0 222 2 406 5 409 3 3 193 5 422 5 l415 0 417 -416z"/>
<path d="M4745 4620 c-3 -6 1 -7 9 -4 18 7 21 14 7 14 -6 0 -13 -4 -16 -10z"/>
</g>
</svg>
