<?xml version="1.0" standalone="no"?>
<!DOCTYPE svg PUBLIC "-//W3C//DTD SVG 20010904//EN"
 "http://www.w3.org/TR/2001/REC-SVG-20010904/DTD/svg10.dtd">
<svg version="1.0" xmlns="http://www.w3.org/2000/svg"
 width="700.000000pt" height="700.000000pt" viewBox="0 0 700.000000 700.000000"
 preserveAspectRatio="xMidYMid meet">
<metadata>
Created by potrace 1.14, written by Peter Selinger 2001-2017
</metadata>
<g transform="translate(0.000000,700.000000) scale(0.100000,-0.100000)"
fill="#000000" stroke="none">
<path d="M3278 6995 c-1 -1 -42 -5 -89 -9 -47 -4 -95 -8 -105 -10 -10 -2 -41
-7 -69 -10 -428 -56 -875 -210 -1270 -439 -103 -60 -265 -165 -315 -204 -8 -6
-51 -40 -95 -74 -353 -275 -673 -651 -897 -1054 -49 -87 -148 -289 -148 -301
0 -2 -9 -23 -20 -47 -57 -123 -157 -435 -186 -582 -2 -11 -10 -54 -19 -95 -29
-147 -36 -200 -52 -370 -15 -164 -8 -592 12 -711 2 -13 6 -46 9 -74 9 -78 22
-152 51 -285 21 -96 91 -339 114 -395 5 -11 25 -65 46 -120 63 -166 249 -531
312 -610 4 -6 34 -49 65 -95 170 -255 433 -535 708 -755 92 -74 370 -265 386
-265 4 0 15 -6 23 -14 26 -22 298 -158 411 -205 267 -111 589 -200 859 -237
25 -3 57 -8 71 -10 163 -25 682 -25 842 1 13 2 46 7 73 10 72 10 86 12 120 19
17 3 44 8 60 11 194 37 411 101 622 184 130 52 418 192 473 231 15 11 33 20
39 20 6 0 11 5 11 10 0 6 5 10 10 10 15 0 220 141 330 227 152 118 324 280
450 422 36 41 70 79 76 85 6 6 48 61 94 121 150 197 277 405 383 628 26 53 47
99 47 102 0 2 11 28 24 57 57 127 151 421 182 573 17 81 54 301 59 350 4 33 9
71 11 85 9 47 11 525 3 605 -15 165 -21 220 -24 225 -2 3 -6 30 -10 60 -9 75
-69 337 -99 435 -174 571 -466 1062 -881 1478 -384 385 -846 672 -1360 845
-168 57 -420 119 -555 137 -19 3 -46 7 -60 10 -13 2 -52 7 -86 11 -33 3 -74 8
-90 10 -32 5 -540 14 -546 9z m2232 -1960 l0 -410 -359 0 c-198 0 -354 -3
-348 -7 7 -4 21 -8 33 -8 44 0 178 -41 247 -75 74 -37 178 -117 218 -170 13
-17 33 -41 45 -53 49 -55 110 -202 151 -367 4 -16 9 -481 10 -1033 l4 -1002
-413 2 -412 3 -1 885 c-1 487 -5 895 -8 907 -20 78 -75 140 -156 177 -35 15
-66 20 -132 20 -73 0 -93 -4 -142 -27 -63 -31 -101 -71 -130 -137 -20 -44 -20
-66 -21 -937 l0 -893 -413 0 -413 0 -2 903 -3 902 -22 40 c-12 22 -141 159
-287 305 -146 145 -266 270 -266 276 0 6 29 41 64 77 158 161 380 232 642 204
100 -10 154 -26 261 -78 114 -56 213 -139 279 -234 l38 -56 20 28 c23 32 116
125 161 163 133 110 336 184 498 183 l37 -1 0 412 0 411 410 0 410 0 0 -410z
m-3217 -843 l418 -418 -15 -55 c-11 -46 -14 -200 -12 -932 l1 -877 -416 0
-417 0 0 918 c0 504 -1 927 -1 940 l-1 22 -410 0 -410 0 0 410 0 410 423 0
422 0 418 -418z"/>
</g>
</svg>
